HIERARCHY
ROOT Hips
{
	OFFSET 0.000000 0.000000 0.000000
	CHANNELS 6 Xposition Yposition Zposition Zrotation Yrotation Xrotation 
	JOINT LowerBack
	{
		OFFSET 0.000000 0.000000 0.000000
		CHANNELS 3 Zrotation Yrotation Xrotation
		JOINT Spine
		{
			OFFSET 0.028270 2.035590 -0.193380
			CHANNELS 3 Zrotation Yrotation Xrotation
			JOINT Spine1
			{
				OFFSET 0.056720 2.048850 -0.042750
				CHANNELS 3 Zrotation Yrotation Xrotation
				JOINT Neck
				{
					OFFSET 0.000000 0.000000 0.000000
					CHANNELS 3 Zrotation Yrotation Xrotation
					JOINT Neck1
					{
						OFFSET -0.054170 1.746240 0.172020
						CHANNELS 3 Zrotation Yrotation Xrotation
						JOINT Head
						{
							OFFSET 0.104070 1.761360 -0.123970
							CHANNELS 3 Zrotation Yrotation Xrotation
							End Site
							{
								OFFSET 0.000000 0.000000 0.000000
							}
						}
					}
				}
				JOINT LeftShoulder
				{
					OFFSET 0.000000 0.000000 0.000000
					CHANNELS 3 Zrotation Yrotation Xrotation
					JOINT LeftArm
					{
						OFFSET 3.362410 1.200890 -0.311210
						CHANNELS 3 Zrotation Yrotation Xrotation
						JOINT LeftForeArm
						{
							OFFSET 4.983000 -0.000000 -0.000000
							CHANNELS 3 Zrotation Yrotation Xrotation
							JOINT LeftHand
							{
								OFFSET 3.483560 -0.000000 -0.000000
								CHANNELS 3 Zrotation Yrotation Xrotation
								JOINT LeftFingerBase
								{
									OFFSET 0.000000 0.000000 0.000000
									CHANNELS 3 Zrotation Yrotation Xrotation
									JOINT LeftHandIndex1
									{
										OFFSET 0.715260 -0.000000 -0.000000
										CHANNELS 3 Zrotation Yrotation Xrotation
										End Site
										{
											OFFSET 0.000000 0.000000 0.000000
										}
									}
								}
								JOINT LThumb
								{
									OFFSET 0.000000 0.000000 0.000000
									CHANNELS 3 Zrotation Yrotation Xrotation
									End Site
									{
										OFFSET 0.000000 0.000000 0.000000
									}
								}
							}
						}
					}
				}
				JOINT RightShoulder
				{
					OFFSET 0.000000 0.000000 0.000000
					CHANNELS 3 Zrotation Yrotation Xrotation
					JOINT RightArm
					{
						OFFSET -3.136600 1.374050 -0.404650
						CHANNELS 3 Zrotation Yrotation Xrotation
						JOINT RightForeArm
						{
							OFFSET -5.241900 -0.000000 -0.000000
							CHANNELS 3 Zrotation Yrotation Xrotation
							JOINT RightHand
							{
								OFFSET -3.444170 -0.000000 -0.000000
								CHANNELS 3 Zrotation Yrotation Xrotation
								JOINT RightFingerBase
								{
									OFFSET 0.000000 0.000000 0.000000
									CHANNELS 3 Zrotation Yrotation Xrotation
									JOINT RightHandIndex1
									{
										OFFSET -0.622530 -0.000000 -0.000000
										CHANNELS 3 Zrotation Yrotation Xrotation
										End Site
										{
											OFFSET 0.000000 0.000000 0.000000
										}
									}
								}
								JOINT RThumb
								{
									OFFSET 0.000000 0.000000 0.000000
									CHANNELS 3 Zrotation Yrotation Xrotation
									End Site
									{
										OFFSET 0.000000 0.000000 0.000000
									}
								}
							}
						}
					}
				}
			}
		}
	}
}
}
MOTION
Frames: 7
Frame Time: 0.008333
27.199952 16.713075 4.683577 -134.782317 -87.295662 152.413615 5.456097 -3.351266 -4.185838 0.412374 -4.027174 -3.822594 -7.685794 -4.174167 0.215349 10.327546 -7.042756 -6.820986 -4.256640 -0.330426 0.210286 0.000000 0.000000 0.000000 -7.317288 0.539603 2.007256 -65.568360 -18.564133 22.457704 -2.743268 -40.340535 -0.015743 5.348517 0.308938 0.006963 -0.120605 0.188928 0.000000 0.000000 0.000000 0.000000 0.000000 0.000000 0.000000 18.949718 -6.485083 1.997564 63.267001 -4.690140 -16.145819 4.029109 10.408309 0.007633 -1.677522 4.353011 -0.069093 0.119375 -0.063034 -0.000000 0.000000 0.000000 0.000000 0.000000 0.000000 0.000000 
27.046425 16.739653 4.650423 -131.288452 -87.121147 148.852997 5.810140 -3.317620 -4.207535 0.480429 -4.023541 -3.834044 -7.654240 -4.169852 0.210157 10.242870 -6.881500 -6.825109 -4.267831 -0.331496 0.209693 0.000000 0.000000 0.000000 -7.455271 0.688655 2.004439 -65.948428 -17.837731 21.859320 -2.748406 -39.344104 -0.015561 5.437606 0.332615 0.008499 -0.116320 0.182302 0.000000 0.000000 0.000000 0.000000 0.000000 0.000000 0.000000 18.882798 -6.325994 1.973128 63.275921 -4.420755 -16.088854 4.043546 10.060018 0.007447 -1.806353 4.295909 -0.073095 0.120333 -0.062845 -0.000000 0.000000 0.000000 0.000000 0.000000 0.000000 0.000000 
26.893125 16.767875 4.615983 -128.533241 -86.931092 146.012236 6.139920 -3.281817 -4.210770 0.542614 -4.014489 -3.842006 -7.622565 -4.159993 0.204223 10.162300 -6.703560 -6.823622 -4.279477 -0.332626 0.210396 0.000000 0.000000 0.000000 -7.557173 0.844856 2.003160 -66.346961 -17.097396 21.213496 -2.750964 -38.290418 -0.015405 5.533260 0.387043 0.011533 -0.111772 0.175324 0.000000 0.000000 0.000000 0.000000 0.000000 0.000000 0.000000 18.819766 -6.146260 1.946845 63.323283 -4.133499 -15.985757 4.058552 9.734139 0.007296 -1.892518 4.240784 -0.075397 0.121059 -0.062576 -0.000000 0.000000 0.000000 0.000000 0.000000 0.000000 0.000000 
26.740434 16.797322 4.579868 -126.396564 -86.742539 143.777793 6.433214 -3.245647 -4.202996 0.596758 -4.001344 -3.847291 -7.591833 -4.145992 0.199437 10.090065 -6.519326 -6.817251 -4.291901 -0.333850 0.212328 0.000000 0.000000 0.000000 -7.617405 1.000211 2.002968 -66.755470 -16.343684 20.530384 -2.750902 -37.191142 -0.015256 5.630555 0.474366 0.016462 -0.106990 0.168040 0.000000 0.000000 0.000000 0.000000 0.000000 0.000000 0.000000 18.768316 -5.957985 1.918091 63.408169 -3.825372 -15.822272 4.073699 9.435222 0.007193 -1.937528 4.192964 -0.076298 0.121542 -0.062199 -0.000000 0.000000 0.000000 0.000000 0.000000 0.000000 0.000000 
26.588369 16.827617 4.542059 -124.688153 -86.566980 141.964635 6.686752 -3.209618 -4.189806 0.642203 -3.984730 -3.850843 -7.563146 -4.128520 0.196413 10.027327 -6.330639 -6.804974 -4.305596 -0.335223 0.215851 0.000000 0.000000 0.000000 -7.638842 1.151380 2.004619 -67.163076 -15.583328 19.829101 -2.748952 -36.055771 -0.015096 5.723502 0.596765 0.023192 -0.102058 0.160527 0.000000 0.000000 0.000000 0.000000 0.000000 0.000000 0.000000 18.732320 -5.763232 1.886539 63.530038 -3.503061 -15.603882 4.088648 9.173944 0.007143 -1.939913 4.155340 -0.075697 0.121752 -0.061722 -0.000000 0.000000 0.000000 0.000000 0.000000 0.000000 0.000000 
26.437220 16.858384 4.502654 -123.254358 -86.411576 140.423096 6.900145 -3.174318 -4.176520 0.678965 -3.965572 -3.853385 -7.536988 -4.108489 0.196240 9.974450 -6.143728 -6.787499 -4.320559 -0.336747 0.220860 0.000000 0.000000 0.000000 -7.625549 1.295728 2.008193 -67.559820 -14.820906 19.124831 -2.745794 -34.897483 -0.014902 5.804831 0.753731 0.031922 -0.097049 0.152880 0.000000 0.000000 0.000000 0.000000 0.000000 0.000000 0.000000 18.713127 -5.568670 1.852149 63.686251 -3.162593 -15.323712 4.103041 8.952435 0.007152 -1.904567 4.133095 -0.073995 0.121698 -0.061163 -0.000000 0.000000 0.000000 0.000000 0.000000 0.000000 0.000000 
26.286962 16.889267 4.461653 -122.051000 -86.284086 139.118019 7.067883 -3.138378 -4.170205 0.705867 -3.942646 -3.855746 -7.514135 -4.084659 0.200476 9.933471 -5.970835 -6.767000 -4.336986 -0.338436 0.226840 0.000000 0.000000 0.000000 -7.579646 1.427872 2.012730 -67.937510 -14.059237 18.433413 -2.742103 -33.728367 -0.014649 5.865978 0.943030 0.042354 -0.092026 0.145166 0.000000 0.000000 0.000000 0.000000 0.000000 0.000000 0.000000 18.716029 -5.386397 1.815294 63.871543 -2.800313 -14.964367 4.116234 8.780541 0.007212 -1.837674 4.125737 -0.071392 0.121392 -0.060515 -0.000000 0.000000 0.000000 0.000000 0.000000 0.000000 0.000000 
